<?xml version="1.0" encoding="UTF-8" standalone="no"?>
<svg
   id="svg"
   version="1.1"
   width="400"
   height="441.5254237288135"
   viewBox="0, 0, 400,441.5254237288135"
   sodipodi:docname="scratchy.svg"
   inkscape:version="1.1.2 (0a00cf5339, 2022-02-04)"
   xmlns:inkscape="http://www.inkscape.org/namespaces/inkscape"
   xmlns:sodipodi="http://sodipodi.sourceforge.net/DTD/sodipodi-0.dtd"
   xmlns="http://www.w3.org/2000/svg"
   xmlns:svg="http://www.w3.org/2000/svg">
  <defs
     id="defs9" />
  <sodipodi:namedview
     id="namedview7"
     pagecolor="#505050"
     bordercolor="#eeeeee"
     borderopacity="1"
     inkscape:pageshadow="0"
     inkscape:pageopacity="0"
     inkscape:pagecheckerboard="0"
     showgrid="false"
     inkscape:zoom="0.95011517"
     inkscape:cx="15.78756"
     inkscape:cy="136.82552"
     inkscape:window-width="1920"
     inkscape:window-height="1011"
     inkscape:window-x="0"
     inkscape:window-y="32"
     inkscape:window-maximized="0"
     inkscape:current-layer="svgg" />
  <g
     id="svgg">
    <path
       style="fill:#e6e6e6;stroke:none;stroke-width:1px;stroke-linecap:butt;stroke-linejoin:miter;stroke-opacity:1"
       d="m 280.5,163.996 c 0,0 23.29011,6.59381 26.14573,23.6891 2.85563,17.09528 -17.75775,34.7746 -17.75775,34.7746 0,0 -24.22932,21.4223 -69.78798,21.4223 -45.55866,0 -65.66623,-19.46492 -65.66623,-42.21725 0,-22.75234 -8.28641,-56.5781 3.89665,-68.41739 12.18306,-11.83928 71.41931,-14.15606 84.06958,-12.89136 12.65027,1.2647 28.04774,10.0089 39.1,43.64 z"
       id="path1171" />
    <path
       id="path0"
       d="M231.964 89.708 C 227.874 93.499,222.597 98.400,220.238 100.600 C 214.799 105.672,215.382 105.452,209.446 104.661 C 197.419 103.057,184.481 104.202,172.400 107.938 C 170.970 108.381,169.232 108.918,168.537 109.133 C 166.849 109.654,168.920 110.872,143.721 94.535 C 138.177 90.941,133.431 88.000,133.174 88.000 C 132.691 88.000,132.802 90.148,133.598 96.200 C 133.800 97.740,134.159 100.710,134.395 102.800 C 134.811 106.485,135.210 109.864,135.992 116.299 C 136.199 118.004,136.567 121.200,136.811 123.400 C 137.054 125.600,137.412 128.660,137.607 130.200 C 138.618 138.192,138.709 137.444,136.296 141.008 C 134.315 143.934,129.600 152.043,129.600 152.524 C 129.600 152.637,128.971 154.072,128.202 155.714 C 126.429 159.501,123.645 167.545,123.353 169.730 L 123.129 171.400 128.265 173.921 C 137.197 178.305,141.978 181.779,141.435 183.490 C 140.967 184.963,139.694 185.024,137.852 183.663 C 133.139 180.180,123.600 174.961,122.628 175.334 C 121.067 175.933,122.010 192.600,123.664 193.648 C 125.004 194.498,131.621 193.756,137.317 192.118 C 140.692 191.148,140.866 191.136,141.617 191.815 C 143.468 193.490,142.305 194.395,136.200 196.029 C 133.901 196.645,129.691 197.200,127.321 197.200 C 124.143 197.200,124.157 197.134,126.382 201.547 C 129.013 206.764,132.959 212.130,138.000 217.344 C 148.078 227.768,161.772 235.597,176.600 239.414 C 178.580 239.924,181.280 240.629,182.600 240.983 C 188.093 242.452,198.399 243.649,206.800 243.794 C 214.174 243.922,214.456 243.904,209.600 243.620 C 164.411 240.974,140.356 210.425,160.747 181.578 C 163.561 177.597,168.217 173.592,169.272 174.244 C 169.522 174.399,168.560 173.102,167.133 171.363 C 147.720 147.693,161.153 117.874,184.800 132.145 C 198.514 140.422,207.674 160.034,203.254 171.658 C 202.899 172.592,202.957 172.683,203.933 172.715 C 204.520 172.734,206.080 173.045,207.400 173.408 C 208.720 173.770,211.690 174.550,214.000 175.142 C 216.310 175.733,218.424 176.359,218.699 176.531 C 219.087 176.776,219.106 176.604,218.782 175.753 C 217.031 171.147,221.497 169.127,233.400 169.141 C 243.345 169.152,247.200 170.360,247.200 173.466 C 247.200 174.321,247.278 174.303,249.291 172.977 C 250.441 172.220,251.656 171.597,251.991 171.593 C 252.326 171.589,251.700 171.082,250.600 170.465 C 245.651 167.694,241.949 164.502,238.462 160.000 C 220.256 136.493,232.460 110.597,255.400 124.057 C 268.116 131.518,277.967 151.990,273.974 162.656 C 273.717 163.342,273.787 163.478,274.327 163.341 C 274.697 163.248,276.170 163.337,277.600 163.540 C 280.812 163.994,280.582 164.396,279.827 159.650 C 277.711 146.341,270.941 133.139,262.157 125.192 C 256.778 120.326,252.473 116.623,250.300 114.993 C 247.018 112.532,247.681 114.270,243.970 98.400 C 243.532 96.530,243.012 94.370,242.813 93.600 C 242.613 92.830,242.265 91.390,242.039 90.400 C 241.813 89.410,241.327 87.295,240.960 85.700 C 240.095 81.945,240.566 81.735,231.964 89.708 M195.718 100.698 C 197.433 100.773,200.133 100.772,201.718 100.697 C 203.303 100.621,201.900 100.559,198.600 100.560 C 195.300 100.561,194.003 100.622,195.718 100.698 M259.705 169.887 C 260.314 169.979,261.214 169.977,261.705 169.882 C 262.197 169.787,261.700 169.711,260.600 169.714 C 259.500 169.717,259.097 169.795,259.705 169.887 M114.100 193.876 C 114.485 193.976,115.115 193.976,115.500 193.876 C 115.885 193.775,115.570 193.693,114.800 193.693 C 114.030 193.693,113.715 193.775,114.100 193.876 M193.372 194.930 C 193.260 195.222,193.222 197.157,193.287 199.230 L 193.406 203.000 193.603 198.699 C 193.798 194.438,193.765 193.904,193.372 194.930 M241.300 199.097 C 242.785 199.174,245.215 199.174,246.700 199.097 C 248.185 199.020,246.970 198.957,244.000 198.957 C 241.030 198.957,239.815 199.020,241.300 199.097 M290.589 218.500 L 287.800 221.400 290.700 218.611 C 293.394 216.020,293.783 215.600,293.489 215.600 C 293.428 215.600,292.123 216.905,290.589 218.500 M281.087 225.768 C 278.526 227.541,278.228 227.930,280.309 226.784 C 281.250 226.266,282.313 225.518,282.671 225.121 C 283.573 224.125,283.299 224.237,281.087 225.768 M275.100 229.429 C 273.605 230.240,273.696 230.578,275.200 229.800 C 275.860 229.459,276.400 229.094,276.400 228.990 C 276.400 228.732,276.357 228.747,275.100 229.429 M263.688 234.499 C 262.526 234.945,261.641 235.374,261.720 235.453 C 261.920 235.654,265.714 234.372,266.180 233.947 C 266.742 233.434,266.090 233.578,263.688 234.499 M152.196 238.935 C 148.901 240.121,145.171 242.080,141.600 244.500 C 119.203 259.677,117.771 262.860,125.993 279.181 C 134.189 295.447,146.464 302.171,154.371 294.724 C 159.186 290.190,158.233 285.493,150.469 275.489 C 146.667 270.590,146.560 267.630,150.094 265.145 C 165.318 254.442,169.754 249.933,169.785 245.133 C 169.820 239.721,159.810 236.193,152.196 238.935 M241.400 240.800 C 240.896 241.017,240.822 241.144,241.200 241.144 C 241.530 241.144,242.160 240.989,242.600 240.800 C 243.104 240.583,243.178 240.456,242.800 240.456 C 242.470 240.456,241.840 240.611,241.400 240.800 M173.451 245.451 C 172.902 250.228,167.873 256.703,160.949 261.547 C 156.147 264.907,151.004 269.037,150.891 269.625 C 150.826 269.959,151.946 271.805,153.380 273.727 C 161.359 284.430,162.597 288.692,159.352 294.300 L 158.600 295.599 159.800 296.703 C 160.460 297.310,162.530 299.057,164.400 300.585 C 167.118 302.805,173.853 308.642,174.800 309.598 C 174.910 309.709,175.990 310.691,177.200 311.779 C 178.410 312.868,182.370 316.558,186.000 319.979 C 189.629 323.401,194.035 327.550,195.789 329.200 C 197.544 330.850,199.254 332.471,199.590 332.802 C 199.925 333.132,202.359 335.382,204.997 337.802 C 207.635 340.221,210.695 343.033,211.797 344.051 C 216.031 347.963,224.649 355.269,225.686 355.824 C 229.624 357.934,254.208 357.786,262.800 355.601 C 263.570 355.406,264.843 355.081,265.630 354.881 C 271.311 353.431,274.899 348.676,273.914 343.901 C 272.534 337.204,265.736 333.840,252.400 333.258 C 246.474 332.998,245.087 333.075,238.517 334.028 C 236.336 334.345,235.411 334.328,234.717 333.959 C 233.057 333.076,216.317 318.376,210.400 312.606 C 200.764 303.208,194.771 297.430,194.431 297.209 C 193.783 296.790,193.568 295.207,194.036 294.315 C 194.503 293.426,194.494 293.420,193.727 294.100 C 192.563 295.131,192.319 295.032,189.301 292.300 C 187.781 290.925,185.123 288.540,183.393 287.000 C 176.827 281.154,175.786 279.479,176.091 275.255 C 176.523 269.258,184.023 260.138,189.627 258.793 C 197.118 256.996,209.571 266.370,208.647 273.110 C 208.323 275.476,208.386 275.382,210.544 270.318 C 214.371 261.338,215.388 254.081,213.364 250.200 C 212.244 248.053,211.224 247.767,202.783 247.233 C 193.930 246.673,188.477 246.004,183.100 244.819 C 179.458 244.016,177.388 243.615,175.561 243.360 L 173.722 243.103 173.451 245.451 M223.300 243.476 C 223.685 243.576,224.315 243.576,224.700 243.476 C 225.085 243.375,224.770 243.293,224.000 243.293 C 223.230 243.293,222.915 243.375,223.300 243.476 M219.100 243.882 C 219.595 243.978,220.405 243.978,220.900 243.882 C 221.395 243.787,220.990 243.709,220.000 243.709 C 219.010 243.709,218.605 243.787,219.100 243.882 M217.653 258.530 C 217.225 261.785,215.661 267.036,213.388 272.850 L 212.665 274.700 214.232 276.619 C 223.545 288.021,240.157 291.503,251.722 284.477 C 265.318 276.217,271.660 263.997,264.932 259.027 C 259.043 254.677,253.803 256.319,244.083 265.557 C 238.319 271.036,233.812 269.590,221.968 258.460 L 218.136 254.859 217.653 258.530 M98.637 273.800 C 98.835 274.570,98.674 274.595,94.298 274.477 C 85.120 274.229,79.797 278.203,79.802 285.300 C 79.804 288.215,79.790 288.246,78.799 287.500 C 78.434 287.225,79.139 287.963,80.367 289.140 C 82.744 291.418,88.423 295.320,90.779 296.294 C 91.561 296.617,93.173 297.323,94.361 297.863 C 102.364 301.499,125.255 304.063,129.600 301.810 C 131.629 300.758,135.600 298.021,135.600 297.674 C 135.600 297.510,134.415 296.212,132.966 294.788 C 131.518 293.365,129.799 291.435,129.147 290.500 C 128.227 289.181,127.708 288.800,126.832 288.800 C 119.885 288.800,100.102 278.838,99.991 275.284 C 99.986 275.128,99.633 274.550,99.207 274.000 C 98.557 273.162,98.465 273.129,98.637 273.800 M199.375 288.500 L 198.200 289.800 199.500 288.625 C 200.712 287.530,200.984 287.200,200.675 287.200 C 200.606 287.200,200.021 287.785,199.375 288.500 M196.443 291.623 C 195.917 292.061,195.571 292.505,195.675 292.608 C 195.779 292.712,196.286 292.348,196.801 291.798 C 197.924 290.604,197.762 290.525,196.443 291.623 M154.912 298.848 C 152.613 301.147,146.168 302.085,142.094 300.715 L 139.189 299.737 135.494 302.201 C 127.839 307.307,119.615 311.495,111.467 314.436 C 106.497 316.230,105.651 316.296,101.697 315.200 C 89.544 311.832,86.114 319.589,93.049 334.758 C 98.657 347.024,111.835 359.260,119.000 358.853 C 129.488 358.257,131.386 350.235,123.829 338.445 C 119.957 332.404,120.153 332.165,132.800 327.517 C 141.359 324.371,153.224 318.378,162.400 312.566 C 169.210 308.253,168.763 308.749,167.158 307.293 C 159.706 300.531,155.872 297.888,154.912 298.848 M216.400 313.800 C 217.146 314.570,217.847 315.200,217.957 315.200 C 218.067 315.200,217.546 314.570,216.800 313.800 C 216.054 313.030,215.353 312.400,215.243 312.400 C 215.133 312.400,215.654 313.030,216.400 313.800 M273.400 336.000 C 274.259 336.880,275.052 337.600,275.162 337.600 C 275.272 337.600,274.659 336.880,273.800 336.000 C 272.941 335.120,272.148 334.400,272.038 334.400 C 271.928 334.400,272.541 335.120,273.400 336.000 "
       stroke="none"
       fill="#fbab1c"
       fill-rule="evenodd" />
    <path
       id="path1"
       d="M236.115 81.294 C 234.622 82.666,230.880 86.131,227.800 88.994 C 220.032 96.215,218.090 98.009,215.880 100.005 L 213.960 101.739 210.435 101.269 C 198.819 99.723,181.899 101.155,171.249 104.587 C 166.774 106.029,170.558 108.027,142.400 89.361 C 129.166 80.589,127.984 81.203,130.015 95.800 C 130.229 97.340,130.853 102.380,131.401 107.000 C 131.949 111.620,132.565 116.750,132.770 118.400 C 132.975 120.050,133.346 123.200,133.593 125.400 C 133.841 127.600,134.214 130.605,134.422 132.077 C 135.001 136.179,134.906 136.854,133.433 139.040 C 131.551 141.836,127.496 148.701,126.724 150.400 C 124.065 156.252,122.067 161.529,120.819 166.000 C 119.634 170.247,120.073 170.094,114.908 168.065 C 104.990 164.169,104.200 164.046,104.200 166.397 L 104.200 167.793 109.400 169.640 C 112.260 170.656,115.500 171.852,116.600 172.297 L 118.600 173.106 118.621 181.253 C 118.634 186.260,118.829 190.142,119.128 191.326 C 119.827 194.091,119.707 194.163,115.041 193.794 C 107.226 193.176,106.218 193.248,106.080 194.434 C 105.862 196.307,109.176 197.200,116.344 197.200 C 120.349 197.200,121.200 197.396,121.200 198.316 C 121.200 199.426,125.623 207.696,127.877 210.800 C 133.732 218.864,140.168 225.070,148.500 230.687 C 154.368 234.643,154.460 234.822,151.100 235.804 C 146.977 237.009,141.441 240.254,130.858 247.668 C 116.960 257.404,114.853 266.032,122.848 280.464 C 125.084 284.502,125.405 285.364,124.546 285.035 C 124.179 284.894,122.690 284.485,121.239 284.126 C 117.173 283.120,111.796 280.596,108.231 278.020 C 102.828 274.115,99.314 269.869,89.676 255.600 C 83.470 246.412,81.015 244.166,76.951 243.960 C 64.929 243.348,61.023 265.736,70.349 281.800 C 78.704 296.192,94.593 304.534,116.100 305.820 C 122.124 306.180,121.536 307.010,113.000 310.199 C 111.680 310.692,109.903 311.389,109.051 311.748 C 106.945 312.635,104.324 312.567,101.462 311.551 C 92.461 308.355,84.192 315.455,86.031 324.800 C 88.148 335.553,96.019 348.573,104.656 355.606 C 112.590 362.067,117.780 363.577,123.913 361.207 C 133.620 357.458,134.604 349.475,126.897 337.000 C 124.920 333.800,124.595 334.164,131.600 331.730 C 133.433 331.093,142.811 327.140,146.800 325.323 C 151.749 323.068,161.555 317.352,167.767 313.100 C 171.447 310.581,171.030 310.431,177.622 316.662 C 180.800 319.667,184.930 323.559,186.800 325.313 C 188.670 327.067,192.180 330.418,194.600 332.760 C 198.766 336.793,204.827 342.372,208.800 345.832 C 209.790 346.695,211.500 348.227,212.600 349.237 C 224.997 360.625,225.450 360.788,244.630 360.797 C 267.087 360.807,277.387 355.961,277.358 345.400 C 277.325 333.522,262.336 327.318,240.605 330.187 C 235.433 330.870,236.549 331.368,229.400 325.182 C 219.865 316.931,218.236 315.455,212.400 309.784 C 209.210 306.684,204.665 302.283,202.300 300.004 C 197.361 295.244,197.572 295.709,199.445 293.728 C 202.145 290.873,205.422 286.576,208.015 282.494 C 211.075 277.675,210.376 277.848,213.800 281.056 C 217.940 284.934,223.321 288.222,229.400 290.586 C 237.882 293.886,250.384 290.816,259.095 283.295 C 271.900 272.240,274.704 263.942,267.926 257.164 C 261.055 250.293,254.626 251.753,241.590 263.143 C 236.823 267.308,234.976 266.335,220.313 251.933 C 217.923 249.587,216.111 247.581,216.284 247.475 C 216.458 247.370,219.300 247.079,222.600 246.829 C 225.900 246.578,229.590 246.210,230.800 246.012 C 232.010 245.813,234.304 245.455,235.898 245.216 C 242.414 244.240,244.449 243.855,249.800 242.584 C 259.226 240.346,271.365 235.842,277.118 232.449 C 278.282 231.762,279.299 231.200,279.377 231.200 C 279.456 231.200,280.596 230.525,281.912 229.700 C 292.946 222.782,302.348 211.754,305.613 201.900 C 306.658 198.747,306.321 198.842,312.400 200.000 C 318.295 201.123,329.545 201.166,330.538 200.069 C 332.504 197.896,330.725 197.200,323.201 197.200 C 319.922 197.200,316.376 197.036,315.320 196.835 C 314.264 196.635,312.095 196.259,310.500 195.999 L 307.600 195.527 307.600 190.859 C 307.600 186.979,307.430 185.655,306.594 183.022 C 305.457 179.439,305.492 179.362,308.400 178.997 C 309.390 178.873,312.432 178.218,315.161 177.542 C 319.571 176.448,321.433 175.770,326.779 173.308 C 330.342 171.667,334.800 168.232,334.800 167.127 C 334.800 165.041,333.191 165.203,329.543 167.654 C 325.447 170.407,320.025 172.802,315.200 173.989 C 303.950 176.757,304.090 176.764,301.000 173.274 C 297.319 169.115,290.585 164.372,285.904 162.639 C 283.580 161.778,283.723 162.018,282.985 157.733 C 280.172 141.382,272.585 128.935,258.270 117.184 C 249.723 110.167,250.453 110.989,249.581 107.400 C 248.558 103.185,244.387 85.389,244.003 83.600 C 242.820 78.089,240.380 77.376,236.115 81.294 M240.960 85.700 C 241.327 87.295,241.813 89.410,242.039 90.400 C 242.265 91.390,242.613 92.830,242.813 93.600 C 243.012 94.370,243.532 96.530,243.970 98.400 C 247.681 114.270,247.018 112.532,250.300 114.993 C 252.473 116.623,256.778 120.326,262.157 125.192 C 270.990 133.183,277.767 146.453,279.853 159.841 L 280.500 163.996 282.150 164.426 C 286.567 165.576,293.178 169.518,297.100 173.341 C 299.829 176.000,299.993 176.362,298.800 177.107 C 297.104 178.167,298.435 180.290,300.492 179.806 C 302.741 179.277,304.405 183.589,304.394 189.920 C 304.387 194.070,304.162 194.594,302.641 194.016 C 300.391 193.160,298.946 193.734,299.345 195.324 C 299.528 196.052,300.092 196.522,301.374 197.011 C 304.215 198.096,303.895 199.745,299.183 208.308 C 296.866 212.518,290.869 218.955,285.400 223.102 C 282.142 225.572,273.239 231.200,272.589 231.200 C 272.498 231.200,271.473 231.630,270.312 232.155 C 265.322 234.412,264.371 234.786,260.000 236.206 C 254.585 237.965,252.347 238.588,247.800 239.600 C 246.920 239.796,245.390 240.150,244.400 240.386 C 242.796 240.770,241.350 241.030,236.400 241.829 C 235.630 241.953,233.650 242.299,232.000 242.597 C 219.017 244.945,194.408 244.141,182.600 240.983 C 181.280 240.629,178.580 239.924,176.600 239.414 C 173.069 238.505,172.258 238.237,165.021 235.581 C 150.121 230.112,133.326 215.319,126.382 201.547 C 124.157 197.134,124.143 197.200,127.321 197.200 C 129.691 197.200,133.901 196.645,136.200 196.029 C 142.305 194.395,143.468 193.490,141.617 191.815 C 140.866 191.136,140.692 191.148,137.317 192.118 C 131.621 193.756,125.004 194.498,123.664 193.648 C 122.010 192.600,121.067 175.933,122.628 175.334 C 123.600 174.961,133.139 180.180,137.852 183.663 C 139.694 185.024,140.967 184.963,141.435 183.490 C 141.978 181.779,137.197 178.305,128.265 173.921 L 123.129 171.400 123.353 169.730 C 123.645 167.545,126.429 159.501,128.202 155.714 C 128.971 154.072,129.600 152.637,129.600 152.524 C 129.600 152.043,134.315 143.934,136.296 141.008 C 138.709 137.444,138.618 138.192,137.607 130.200 C 137.412 128.660,137.054 125.600,136.811 123.400 C 136.567 121.200,136.199 118.004,135.992 116.299 C 135.210 109.864,134.811 106.485,134.395 102.800 C 134.159 100.710,133.800 97.740,133.598 96.200 C 132.802 90.148,132.691 88.000,133.174 88.000 C 133.431 88.000,138.177 90.941,143.721 94.535 C 168.920 110.872,166.849 109.654,168.537 109.133 C 169.232 108.918,170.970 108.381,172.400 107.938 C 184.481 104.202,197.419 103.057,209.446 104.661 C 215.382 105.452,214.799 105.672,220.238 100.600 C 234.261 87.523,239.450 82.815,239.846 82.808 C 240.091 82.804,240.592 84.105,240.960 85.700 M241.400 120.356 C 225.022 123.207,226.266 149.931,243.498 165.431 C 259.547 179.866,277.098 172.902,274.396 153.171 C 271.965 135.419,254.522 118.071,241.400 120.356 M248.316 124.451 C 265.350 129.855,277.762 157.372,267.540 167.072 C 257.861 176.257,237.643 161.130,233.763 141.800 C 231.214 129.099,237.888 121.143,248.316 124.451 M170.000 128.751 C 157.347 131.543,153.916 148.521,162.715 164.800 C 176.462 190.231,206.843 187.634,203.958 161.274 C 202.011 143.484,183.514 125.768,170.000 128.751 M178.741 132.814 C 187.092 135.988,196.506 146.101,198.835 154.400 C 199.113 155.390,199.470 156.380,199.629 156.600 C 201.012 158.515,201.018 167.462,199.638 171.387 C 198.832 173.681,195.668 177.596,194.615 177.602 C 194.387 177.604,193.683 177.875,193.051 178.204 C 183.883 182.986,167.504 171.614,162.830 157.223 C 157.508 140.838,165.916 127.940,178.741 132.814 M258.600 148.561 C 254.384 150.422,254.311 156.486,258.479 158.641 C 260.421 159.645,261.845 159.355,263.600 157.600 C 267.721 153.479,263.745 146.290,258.600 148.561 M187.763 156.771 C 183.261 158.787,183.612 165.620,188.298 167.166 C 192.032 168.399,195.417 164.092,194.026 159.878 C 193.099 157.069,190.253 155.657,187.763 156.771 M228.400 169.212 C 215.118 170.093,214.902 176.349,227.880 184.294 C 235.658 189.056,241.357 187.662,245.357 180.019 C 250.046 171.056,245.385 168.086,228.400 169.212 M191.322 192.165 C 188.357 194.714,190.169 209.196,194.433 217.022 C 199.155 225.690,212.007 231.786,224.073 231.080 C 237.033 230.322,246.014 226.546,253.845 218.563 C 256.505 215.851,261.600 209.086,261.600 208.266 C 261.600 208.150,262.140 206.889,262.800 205.463 C 264.231 202.371,264.325 200.522,263.130 199.002 C 262.154 197.761,263.296 197.779,251.600 198.820 C 242.158 199.661,224.833 198.576,214.800 196.516 C 213.150 196.177,210.990 195.743,210.000 195.552 C 206.285 194.835,204.869 194.457,199.881 192.850 C 193.940 190.935,192.853 190.849,191.322 192.165 M201.600 196.801 C 206.204 198.195,216.031 200.399,219.600 200.840 C 229.319 202.039,231.942 202.200,241.800 202.200 C 247.740 202.200,254.355 202.044,256.500 201.852 C 261.034 201.448,260.934 201.329,259.316 205.200 C 252.021 222.651,229.850 231.906,210.412 225.615 C 201.860 222.847,196.170 216.503,194.415 207.782 C 194.151 206.472,193.770 204.645,193.568 203.723 C 193.162 201.874,193.062 195.071,193.435 194.699 C 193.675 194.459,194.916 194.778,201.600 196.801 M162.800 238.678 C 167.876 240.132,169.806 241.915,169.785 245.133 C 169.754 249.933,165.318 254.442,150.094 265.145 C 146.560 267.630,146.667 270.590,150.469 275.489 C 158.233 285.493,159.186 290.190,154.371 294.724 C 145.351 303.219,130.972 293.171,123.257 272.981 C 120.810 266.577,120.729 265.041,122.617 260.835 C 124.340 256.995,128.708 253.236,141.600 244.500 C 150.048 238.775,156.730 236.940,162.800 238.678 M179.300 244.009 C 180.345 244.224,182.055 244.588,183.100 244.819 C 188.477 246.004,193.930 246.673,202.783 247.233 C 211.224 247.767,212.244 248.053,213.364 250.200 C 215.829 254.926,213.932 263.716,207.581 277.000 C 205.567 281.211,201.042 287.302,196.579 291.808 C 193.550 294.867,192.967 296.315,194.408 297.205 C 194.765 297.426,200.360 302.814,210.400 312.606 C 216.317 318.376,233.057 333.076,234.717 333.959 C 235.411 334.328,236.336 334.345,238.517 334.028 C 245.087 333.075,246.474 332.998,252.400 333.258 C 265.736 333.840,272.534 337.204,273.914 343.901 C 274.899 348.676,271.311 353.431,265.630 354.881 C 264.843 355.081,263.570 355.406,262.800 355.601 C 254.208 357.786,229.624 357.934,225.686 355.824 C 224.649 355.269,216.031 347.963,211.797 344.051 C 210.695 343.033,207.635 340.221,204.997 337.802 C 202.359 335.382,199.925 333.132,199.590 332.802 C 199.254 332.471,197.544 330.850,195.789 329.200 C 194.035 327.550,189.629 323.401,186.000 319.979 C 182.370 316.558,178.410 312.868,177.200 311.779 C 175.990 310.691,174.910 309.709,174.800 309.598 C 173.853 308.642,167.118 302.805,164.400 300.585 C 162.530 299.057,160.460 297.310,159.800 296.703 L 158.600 295.599 159.352 294.300 C 162.597 288.692,161.359 284.430,153.380 273.727 C 151.946 271.805,150.826 269.959,150.891 269.625 C 151.004 269.037,156.147 264.907,160.949 261.547 C 167.873 256.703,172.902 250.228,173.451 245.451 L 173.722 243.103 175.561 243.360 C 176.572 243.501,178.255 243.793,179.300 244.009 M79.400 247.628 C 80.750 248.263,81.718 249.454,85.600 255.256 C 89.786 261.512,95.969 270.062,98.860 273.591 C 99.487 274.356,100.000 275.114,100.000 275.275 C 100.000 278.782,119.874 288.800,126.832 288.800 C 127.708 288.800,128.227 289.181,129.147 290.500 C 129.799 291.435,131.518 293.365,132.966 294.788 C 134.415 296.212,135.600 297.510,135.600 297.674 C 135.600 298.021,131.629 300.758,129.600 301.810 C 125.255 304.063,102.364 301.499,94.361 297.863 C 93.173 297.323,91.561 296.617,90.779 296.294 C 86.524 294.536,79.398 288.838,75.903 284.400 C 74.251 282.303,72.219 278.743,70.879 275.600 C 65.892 263.904,67.987 249.307,75.000 246.885 C 76.351 246.419,77.102 246.546,79.400 247.628 M228.600 264.209 C 235.952 269.850,239.263 270.138,244.083 265.557 C 253.803 256.319,259.043 254.677,264.932 259.027 C 274.482 266.082,256.606 287.066,240.064 288.218 C 231.215 288.834,220.151 283.866,214.232 276.619 L 212.665 274.700 213.388 272.850 C 215.661 267.036,217.225 261.785,217.653 258.530 L 218.136 254.859 221.968 258.460 C 224.076 260.441,227.060 263.028,228.600 264.209 M161.200 302.237 C 168.689 308.462,168.653 308.424,167.758 309.089 C 160.382 314.572,142.792 323.844,132.800 327.517 C 120.153 332.165,119.957 332.404,123.829 338.445 C 131.386 350.235,129.488 358.257,119.000 358.853 C 111.835 359.260,98.657 347.024,93.049 334.758 C 86.114 319.589,89.544 311.832,101.697 315.200 C 105.651 316.296,106.497 316.230,111.467 314.436 C 119.615 311.495,127.839 307.307,135.494 302.201 L 139.189 299.737 142.094 300.715 C 146.168 302.085,152.613 301.147,154.912 298.848 C 155.778 297.982,156.640 298.447,161.200 302.237 "
       stroke="none"
       fill="#101e2b"
       fill-rule="evenodd" />
    <path
       style="fill:#e6e6e6;stroke:none;stroke-width:1px;stroke-linecap:butt;stroke-linejoin:miter;stroke-opacity:1"
       d="m 98.637,273.8 c 0,0 -15.549442,-26.60092 -20.742925,-28.02493 -5.193483,-1.42401 -10.956538,8.18806 -11.143961,14.15632 -0.187424,5.96825 4.858669,25.36554 11.747659,29.47632 C 85.386763,293.51849 98.637,273.8 98.637,273.8 Z"
       id="path1604"
       sodipodi:nodetypes="csssc" />
    <path
       style="fill:#e6e6e6;stroke:none;stroke-width:1px;stroke-linecap:butt;stroke-linejoin:miter;stroke-opacity:1"
       d="m 193.3663,295.28563 c 8.55612,-8.01356 15.80681,-17.61259 15.91362,-20.94776 0.10681,-3.33518 1.30722,-7.09321 -4.4148,-11.51756 -5.72201,-4.42435 -18.51368,-6.90363 -22.77778,-3.70004 -4.26411,3.20359 -12.62949,19.57574 -6.88344,26.0793 5.74605,6.50356 18.1624,10.08606 18.1624,10.08606 z"
       id="path2276" />
  </g>
</svg>
